<svg width="18" height="22" viewBox="0 0 18 22" fill="none" xmlns="http://www.w3.org/2000/svg">
<path id="Vector" d="M3.16654 0.433236C4.8832 0.433236 6.29987 1.83324 6.29987 3.56657C6.29987 5.2999 4.89987 6.6999 3.16654 6.6999C1.4332 6.6999 0.0332031 5.26657 0.0332031 3.5499C0.0332031 1.83324 1.44987 0.433236 3.16654 0.433236ZM8.99987 21.5999C4.51654 21.5999 0.866536 17.9499 0.866536 13.4666C0.866536 12.2999 1.81654 11.3332 2.9832 11.3332H14.9832C16.1499 11.3332 17.0999 12.2832 17.0999 13.4666C17.1332 17.9499 13.4832 21.5999 8.99987 21.5999ZM14.8332 6.66657C13.1165 6.66657 11.6999 5.26657 11.6999 3.53324C11.6999 1.7999 13.0999 0.399902 14.8332 0.399902C16.5665 0.399902 17.9665 1.7999 17.9665 3.53324C17.9665 5.26657 16.5499 6.66657 14.8332 6.66657Z" fill="white" fill-opacity="0.4"/>
</svg>
