<svg width="16" height="16" viewBox="0 0 16 16" fill="none" xmlns="http://www.w3.org/2000/svg">
<g id="trash">
<path id="Vector " fill-rule="evenodd" clip-rule="evenodd" d="M6.66668 1.83334C6.44566 1.83334 6.2337 1.92114 6.07742 2.07742C5.92114 2.2337 5.83334 2.44566 5.83334 2.66668V3.5H10.1667V2.66668C10.1667 2.44566 10.0789 2.2337 9.9226 2.07742C9.76632 1.92114 9.55436 1.83334 9.33334 1.83334H6.66668ZM11.1667 3.5V2.66668C11.1667 2.18045 10.9735 1.71413 10.6297 1.37031C10.2859 1.0265 9.81958 0.833344 9.33334 0.833344H6.66668C6.18045 0.833344 5.71413 1.0265 5.37032 1.37031C5.0265 1.71413 4.83334 2.18045 4.83334 2.66668V3.5L2 3.5C1.72386 3.5 1.5 3.72386 1.5 4C1.5 4.27614 1.72386 4.5 2 4.5H2.83333L2.83334 13.3333C2.83334 13.8196 3.0265 14.2859 3.37031 14.6297C3.71413 14.9735 4.18045 15.1667 4.66668 15.1667H11.3333C11.8196 15.1667 12.2859 14.9735 12.6297 14.6297C12.9735 14.2859 13.1667 13.8196 13.1667 13.3333V4.5H14C14.2761 4.5 14.5 4.27614 14.5 4C14.5 3.72386 14.2761 3.5 14 3.5H11.1667ZM5.33633 4.5C5.33534 4.50001 5.33434 4.50001 5.33334 4.50001C5.33235 4.50001 5.33135 4.50001 5.33036 4.5L3.83333 4.5L3.83334 13.3333C3.83334 13.5544 3.92114 13.7663 4.07742 13.9226C4.2337 14.0789 4.44566 14.1667 4.66668 14.1667H11.3333C11.5544 14.1667 11.7663 14.0789 11.9226 13.9226C12.0789 13.7663 12.1667 13.5544 12.1667 13.3333V4.50001L10.6682 4.50001C10.6677 4.50001 10.6672 4.50001 10.6667 4.50001C10.6662 4.50001 10.6656 4.50001 10.6651 4.50001L5.33633 4.5Z" fill="#F2F2F2"/>
</g>
</svg>
