<svg width="17" height="16" viewBox="0 0 17 16" fill="none" xmlns="http://www.w3.org/2000/svg">
<g id="layers">
<path id="Vector " fill-rule="evenodd" clip-rule="evenodd" d="M8.27642 0.886038C8.41718 0.815656 8.58287 0.815656 8.72363 0.886038L15.3903 4.21937C15.5597 4.30407 15.6667 4.4772 15.6667 4.66658C15.6667 4.85597 15.5597 5.0291 15.3903 5.1138L8.72363 8.44713C8.58287 8.51751 8.41718 8.51751 8.27642 8.44713L1.60975 5.1138C1.44036 5.0291 1.33336 4.85597 1.33336 4.66658C1.33336 4.4772 1.44036 4.30407 1.60975 4.21937L8.27642 0.886038ZM2.9514 4.66658L8.50003 7.4409L14.0487 4.66658L8.50003 1.89227L2.9514 4.66658ZM1.38615 7.7763C1.50964 7.52931 1.80998 7.4292 2.05697 7.55269L8.50003 10.7742L14.9431 7.55269C15.1901 7.4292 15.4904 7.52931 15.6139 7.7763C15.7374 8.02329 15.6373 8.32363 15.3903 8.44712L8.72363 11.7805C8.58287 11.8508 8.41718 11.8508 8.27642 11.7805L1.60975 8.44712C1.36277 8.32363 1.26265 8.02329 1.38615 7.7763ZM1.38615 11.1096C1.50964 10.8627 1.80998 10.7625 2.05697 10.886L8.50003 14.1076L14.9431 10.886C15.1901 10.7625 15.4904 10.8627 15.6139 11.1096C15.7374 11.3566 15.6373 11.657 15.3903 11.7805L8.72363 15.1138C8.58287 15.1842 8.41718 15.1842 8.27642 15.1138L1.60975 11.7805C1.36277 11.657 1.26265 11.3566 1.38615 11.1096Z" fill="black"/>
</g>
</svg>
