<svg width="119" height="26" viewBox="0 0 119 26" fill="none" xmlns="http://www.w3.org/2000/svg">
<g id="Frame" clip-path="url(#clip0_4100_893)">
<path id="Vector" d="M86.6715 21.8799C83.2619 21.8799 81.197 19.3348 81.197 15.7572C81.197 12.1556 83.286 9.51441 86.7675 9.51441C88.5683 9.51441 90.081 10.3068 90.8733 11.7474V3.91992H93.1063V21.5918H91.0894L90.8973 19.4548C90.129 21.0636 88.5443 21.8799 86.6715 21.8799ZM87.1277 19.839C89.4327 19.839 90.8493 18.1343 90.8493 15.6852C90.8493 13.2841 89.4327 11.5553 87.1277 11.5553C84.8226 11.5553 83.478 13.2841 83.478 15.6852C83.478 18.1102 84.8226 19.839 87.1277 19.839Z" fill="white"/>
<path id="Vector_2" d="M78.4028 21.5918H76.1458V3.91992H78.4028V21.5918Z" fill="white"/>
<path id="Vector_3" d="M61.1376 15.7088C61.1376 12.0832 63.7307 9.53809 67.2603 9.53809C70.7659 9.53809 73.359 12.0832 73.359 15.7088C73.359 19.3345 70.7659 21.8796 67.2603 21.8796C63.7307 21.8796 61.1376 19.3345 61.1376 15.7088ZM63.4186 15.7088C63.4186 18.1579 64.9793 19.8627 67.2603 19.8627C69.5173 19.8627 71.102 18.1579 71.102 15.7088C71.102 13.2597 69.5173 11.555 67.2603 11.555C64.9793 11.555 63.4186 13.2597 63.4186 15.7088Z" fill="white"/>
<path id="Vector_4" d="M53.1484 9.85056H54.8772V7.97773C54.8772 5.09645 56.4619 3.91992 58.5989 3.91992C59.0311 3.91992 59.5353 3.94393 59.9915 4.01596V5.96083H58.983C57.5184 5.96083 57.1342 6.70516 57.1342 7.97773V9.85056H59.9195V11.7474H57.1342V21.5918H54.8772V11.7474H53.1484V9.85056Z" fill="white"/>
<path id="Vector_5" d="M49.7278 7.06497C48.9114 7.06497 48.2391 6.39267 48.2391 5.57631C48.2391 4.73594 48.9114 4.08765 49.7278 4.08765C50.5442 4.08765 51.2165 4.73594 51.2165 5.57631C51.2165 6.39267 50.5442 7.06497 49.7278 7.06497ZM48.6233 21.5914V9.85021H50.8803V21.5914H48.6233Z" fill="white"/>
<path id="Vector_6" d="M36.8293 21.5918H34.5723V9.85055H36.6132L36.8533 11.6514C37.5976 10.3068 39.0863 9.5144 40.743 9.5144C43.8404 9.5144 45.257 11.4112 45.257 14.4126V21.5918H43V14.9168C43 12.5398 41.8955 11.5793 40.1668 11.5793C38.0538 11.5793 36.8293 13.092 36.8293 15.373V21.5918Z" fill="white"/>
<path id="Vector_7" d="M24.94 21.8799C22.4188 21.8799 20.9302 20.4633 20.9302 18.3263C20.9302 16.1654 22.5389 14.8208 25.3001 14.6047L28.9978 14.3165V13.9804C28.9978 12.0115 27.8212 11.3152 26.2365 11.3152C24.3397 11.3152 23.2592 12.1556 23.2592 13.5722H21.2903C21.2903 11.1231 23.3072 9.5144 26.3326 9.5144C29.2379 9.5144 31.2068 11.0511 31.2068 14.2205V21.5918H29.2859L29.0458 19.6949C28.4455 21.0395 26.8368 21.8799 24.94 21.8799ZM25.5883 20.1271C27.7252 20.1271 29.0218 18.7345 29.0218 16.5255V15.9012L26.0204 16.1414C24.0276 16.3334 23.2112 17.1018 23.2112 18.2543C23.2112 19.5029 24.1236 20.1271 25.5883 20.1271Z" fill="white"/>
<path id="Vector_8" d="M2.81853 21.5918H0.561523V9.85055H2.57842L2.79452 11.3872C3.39479 10.2828 4.64334 9.5144 6.30008 9.5144C8.12489 9.5144 9.42147 10.4268 10.0217 11.8915C10.574 10.4268 11.9906 9.5144 13.8154 9.5144C16.5046 9.5144 18.1374 11.1952 18.1374 13.9084V21.5918H15.9284V14.4606C15.9284 12.6118 14.8959 11.5553 13.3112 11.5553C11.6064 11.5553 10.4779 12.7558 10.4779 14.6287V21.5918H8.24495V14.4366C8.24495 12.5878 7.2365 11.5793 5.65179 11.5793C3.94703 11.5793 2.81853 12.7558 2.81853 14.6287V21.5918Z" fill="white"/>
<path id="Vector_9" fill-rule="evenodd" clip-rule="evenodd" d="M109.528 18.4638C108.731 18.8726 107.826 19.1033 106.868 19.1033C103.642 19.1033 101.027 16.4881 101.027 13.262C101.027 10.0359 103.642 7.42066 106.868 7.42066C110.094 7.42066 112.709 10.0359 112.709 13.262C112.709 14.22 112.479 15.1242 112.07 15.922C111.462 15.4517 110.586 15.4953 110.028 16.0529L109.659 16.4215C109.102 16.9792 109.058 17.8562 109.528 18.4638ZM111.651 20.6044C110.276 21.5021 108.633 22.024 106.868 22.024C102.029 22.024 98.1062 18.1011 98.1062 13.262C98.1062 8.42287 102.029 4.5 106.868 4.5C111.707 4.5 115.63 8.42287 115.63 13.262C115.63 15.0268 115.108 16.6697 114.211 18.0449L118.906 22.7405L116.347 25.3L111.651 20.6044Z" fill="#9579F3"/>
</g>
<defs>
<clipPath id="clip0_4100_893">
<rect width="119" height="25" fill="white" transform="translate(0 0.5)"/>
</clipPath>
</defs>
</svg>
