<svg width="16" height="16" viewBox="0 0 16 16" fill="none" xmlns="http://www.w3.org/2000/svg">
<g id="edit-3">
<path id="Vector " fill-rule="evenodd" clip-rule="evenodd" d="M12 2.4191C11.7575 2.4191 11.525 2.51542 11.3536 2.68686L3.11816 10.9223L2.6872 12.6461L4.41105 12.2152L12.6465 3.97976C12.7313 3.89487 12.7987 3.79408 12.8446 3.68317C12.8906 3.57225 12.9142 3.45337 12.9142 3.33331C12.9142 3.21326 12.8906 3.09437 12.8446 2.98346C12.7987 2.87254 12.7313 2.77176 12.6465 2.68686C12.5616 2.60197 12.4608 2.53463 12.3499 2.48869C12.2389 2.44274 12.1201 2.4191 12 2.4191ZM10.6465 1.97976C11.0054 1.62077 11.4923 1.4191 12 1.4191C12.2514 1.4191 12.5003 1.46861 12.7325 1.56481C12.9648 1.66101 13.1758 1.80201 13.3536 1.97976C13.5313 2.15751 13.6723 2.36853 13.7685 2.60077C13.8647 2.83302 13.9142 3.08193 13.9142 3.33331C13.9142 3.58469 13.8647 3.83361 13.7685 4.06585C13.6723 4.29809 13.5313 4.50911 13.3536 4.68686L5.02023 13.0202C4.95615 13.0843 4.87586 13.1297 4.78794 13.1517L2.12128 13.8184C1.95089 13.861 1.77065 13.8111 1.64646 13.6869C1.52227 13.5627 1.47234 13.3824 1.51494 13.212L2.18161 10.5454C2.20358 10.4575 2.24904 10.3772 2.31312 10.3131L10.6465 1.97976ZM7.50001 13.3333C7.50001 13.0572 7.72387 12.8333 8.00001 12.8333H14C14.2762 12.8333 14.5 13.0572 14.5 13.3333C14.5 13.6095 14.2762 13.8333 14 13.8333H8.00001C7.72387 13.8333 7.50001 13.6095 7.50001 13.3333Z" fill="#F2F2F2"/>
</g>
</svg>
